<svg xmlns="http://www.w3.org/2000/svg" width="788" height="185" viewBox="0 0 788 185">
  <metadata><?xpacket begin="﻿" id="W5M0MpCehiHzreSzNTczkc9d"?>
<x:xmpmeta xmlns:x="adobe:ns:meta/" x:xmptk="Adobe XMP Core 5.6-c138 79.159824, 2016/09/14-01:09:01        ">
   <rdf:RDF xmlns:rdf="http://www.w3.org/1999/02/22-rdf-syntax-ns#">
      <rdf:Description rdf:about=""/>
   </rdf:RDF>
</x:xmpmeta>
                                                                                                    
                                                                                                    
                                                                                                    
                                                                                                    
                                                                                                    
                                                                                                    
                                                                                                    
                                                                                                    
                                                                                                    
                                                                                                    
                                                                                                    
                                                                                                    
                                                                                                    
                                                                                                    
                                                                                                    
                                                                                                    
                                                                                                    
                                                                                                    
                                                                                                    
                                                                                                    
                           
<?xpacket end="w"?></metadata>
<defs>
    <style>
      .cls-1 {
        fill: #231f20;
      }

      .cls-1, .cls-2 {
        fill-rule: evenodd;
      }

      .cls-2 {
        fill: #17a4dd;
      }
    </style>
  </defs>
  <g id="Artboard_1" data-name="Artboard 1">
    <path id="BS" class="cls-1" d="M366.978,7.694c-0.028,4.692-2.691,7.695-7.66,7.695H326.193c-7.455,0-10.2,2.6-10.2,10.224V61.423c0,17.905-7.956,25.573-25.685,25.573H247.093c-4.62,0-7.544-3.032-7.544-7.612,0-4.754,3.041-7.73,7.647-7.73h43.112c7.241,0,10.392-3.162,10.392-10.231V25.613c0-17.933,7.687-25.58,25.493-25.58h33.125c4.955,0,7.632,2.935,7.66,7.661M101.929,0.016l-76.45.014C10.192,0.03,0,10.267,0,25.61V61.42C0,76.776,10.192,86.992,25.479,86.971H86.643c5.093,0.021,10.179-5.084,10.179-10.2L96.815,58.87A7.41,7.41,0,0,0,89.34,51.2c-4.757,0-7.8,3.011-7.8,7.675V71.65H25.479c-5.1,0-10.193-5.112-10.193-10.23V25.61c0-5.112,5.093-10.217,10.193-10.238l76.451,0.021c5.106,0,10.2,5.105,10.2,10.217V79.331a7.553,7.553,0,0,0,7.646,7.661c4.331,0,7.639-2.439,7.639-7.661V25.61c0-15.342-10.186-25.579-25.485-25.594M382.26,61.422c0,17.912,7.482,25.572,25.486,25.572h94.269c4.612,0,7.66-2.976,7.66-7.716,0-4.581-2.938-7.626-7.564-7.626H407.746c-7.654-.124-10.207-2.749-10.207-10.23V25.612c0-7.654,2.773-10.223,10.207-10.223h76.443c7.194,0,10.193,2.68,10.193,10.224,0,7.668-2.67,10.223-10.193,10.223H420.547c-5.135,0-7.653,2.59-7.653,7.675,0,4.919,2.594,7.688,7.653,7.688h63.642c18.052,0,25.486-7.688,25.486-25.586S502,0.032,484.189.032H407.746c-18.32,0-25.486,7.675-25.486,25.579v35.81Zm142.7,0c0,17.912,7.488,25.572,25.486,25.572h85.655c4.605,0,7.653-2.976,7.653-7.716,0-4.581-2.663-7.626-7.557-7.626H550.45c-7.64-.124-10.207-2.749-10.207-10.23V25.612c0-7.475,2.567-10.113,10.207-10.223H636c4.613,0,7.653-2.948,7.653-7.675,0-4.595-2.945-7.681-7.557-7.681H550.45c-18,0-25.486,7.661-25.486,25.579v35.81ZM660.6,25.492c0-17.9,7.5-25.462,25.473-25.462h76.443c18,0,25.486,7.557,25.486,25.462v35.8c0,17.919-7.488,25.7-25.486,25.7H686.071c-17.977,0-25.473-7.785-25.473-25.7v-35.8ZM762.514,71.65c7.64-.117,10.2-2.893,10.2-10.361V25.616c0-7.474-2.56-10.12-10.2-10.223H686.071c-7.64.1-10.193,2.618-10.193,10.1v35.8c0,7.468,2.553,10.244,10.193,10.347ZM270.119,7.694c-0.027-4.726-2.7-7.661-7.667-7.661H229.327c-17.805,0-25.493,7.647-25.493,25.58V61.423c0,7.069-3.144,10.231-10.385,10.231H150.042c-4.6,0-7.365,2.976-7.365,7.73,0,4.581,2.766,7.612,7.365,7.612h43.407c17.716,0,25.685-7.668,25.685-25.573V25.613c0-7.62,2.746-10.224,10.193-10.224h33.125c4.983,0,7.64-3,7.667-7.695"/>
    <path id="Asseco" class="cls-2" d="M50,139.794H63.172c8.7,0,14.137,4.695,14.137,11.538A10.685,10.685,0,0,1,71.68,160.9c4.415,1.842,7.1,5.453,7.1,10.208,0,7.92-6.522,13.054-14.52,13.054H50V139.794Zm13.426,18.574c3.838,0,6.589-2.534,6.589-6.338,0-3.737-2.556-6.084-6.649-6.084H57.1v12.422h6.327Zm0.127,19.71c4.482,0,7.871-2.341,7.871-6.969,0-4.755-3.455-6.976-7.871-6.976H57.1v13.945h6.455Zm26.384-10.2V139.794h7.1v28.017c0,6.53,3.583,10.646,10.232,10.646,6.589,0,10.233-4.183,10.233-10.706V139.794h7.038v28.017c0,10.081-6.4,17.176-17.271,17.176C96.077,184.987,89.938,178.144,89.938,167.877Zm51.39,4.309c1.215,3.165,3.839,6.271,8.763,6.271,4.027,0,6.711-2.214,6.711-5.958,0-9.376-20.143-7.289-20.143-21.546,0-6.909,5.179-11.983,13.432-11.983a13.545,13.545,0,0,1,13.239,9.064l-5.884,2.6c-1.027-2.154-3.073-5.194-7.482-5.194-3.966,0-6.207,2.408-6.207,5.447,0,8.751,20.271,7.161,20.271,21.106,0,7.415-5.435,12.994-14.258,12.994-9.146,0-13.111-6.084-14.454-10.014Zm34.248-32.392h7.1v44.369h-7.1V139.794Zm20.921,0h7.166L225.6,173.137V139.794h6.972v44.369h-7.039l-22-33.15v33.15H196.5V139.794Zm49.862,0h22.129v6.338h-15.03v12.362H266.5v6.277H253.458v13.055h15.667v6.337H246.359V139.794Zm38.205,32.392c1.215,3.165,3.839,6.271,8.763,6.271,4.027,0,6.711-2.214,6.711-5.958,0-9.376-20.143-7.289-20.143-21.546,0-6.909,5.179-11.983,13.432-11.983a13.544,13.544,0,0,1,13.239,9.064l-5.884,2.6c-1.027-2.154-3.073-5.194-7.482-5.194-3.965,0-6.207,2.408-6.207,5.447,0,8.751,20.271,7.161,20.271,21.106,0,7.415-5.435,12.994-14.258,12.994-9.146,0-13.111-6.084-14.453-10.014Zm37.382,0c1.214,3.165,3.838,6.271,8.762,6.271,4.026,0,6.71-2.214,6.71-5.958,0-9.376-20.142-7.289-20.142-21.546,0-6.909,5.18-11.983,13.432-11.983a13.545,13.545,0,0,1,13.239,9.064l-5.885,2.6c-1.026-2.154-3.073-5.194-7.481-5.194-3.966,0-6.206,2.408-6.206,5.447,0,8.751,20.27,7.161,20.27,21.106,0,7.415-5.435,12.994-14.258,12.994-9.146,0-13.111-6.084-14.454-10.014Zm57.919,0c1.214,3.165,3.838,6.271,8.764,6.271,4.025,0,6.709-2.214,6.709-5.958,0-9.376-20.143-7.289-20.143-21.546,0-6.909,5.18-11.983,13.434-11.983a13.545,13.545,0,0,1,13.238,9.064l-5.885,2.6c-1.026-2.154-3.073-5.194-7.481-5.194-3.965,0-6.207,2.408-6.207,5.447,0,8.751,20.271,7.161,20.271,21.106,0,7.415-5.435,12.994-14.259,12.994-9.146,0-13.111-6.084-14.453-10.014ZM434.7,138.97c13.366,0,23.021,10.081,23.021,23.009,0,13.06-9.655,23.008-23.089,23.008-13.366,0-23.021-9.888-23.021-23.008C411.61,148.985,421.332,138.97,434.7,138.97Zm0,39.427c8.95,0,15.667-6.909,15.667-16.418,0-9.377-6.717-16.412-15.667-16.412-9.019,0-15.668,7.035-15.668,16.412C419.031,171.488,425.68,178.4,434.7,178.4Zm34.448-38.6h7.1v38.032h15.668v6.337H469.147V139.794Zm31.872,28.083V139.794h7.1v28.017c0,6.53,3.583,10.646,10.233,10.646,6.589,0,10.232-4.183,10.232-10.706V139.794h7.039v28.017c0,10.081-6.4,17.176-17.271,17.176C507.159,184.987,501.019,178.144,501.019,167.877Zm56.062-21.745H545.828v-6.338h29.61v6.338H564.179v38.031h-7.1V146.132Zm29.322-6.338h7.1v44.369h-7.1V139.794Zm41.521-.824c13.366,0,23.021,10.081,23.021,23.009,0,13.06-9.655,23.008-23.089,23.008-13.366,0-23.022-9.888-23.022-23.008C604.834,148.985,614.557,138.97,627.924,138.97Zm0,39.427c8.95,0,15.667-6.909,15.667-16.418,0-9.377-6.717-16.412-15.667-16.412-9.019,0-15.668,7.035-15.668,16.412C612.256,171.488,618.905,178.4,627.924,178.4Zm34.381-38.6h7.166l21.935,33.343V139.794h6.971v44.369h-7.038l-22-33.15v33.15h-7.038V139.794ZM715.3,172.186c1.215,3.165,3.838,6.271,8.763,6.271,4.027,0,6.711-2.214,6.711-5.958,0-9.376-20.143-7.289-20.143-21.546,0-6.909,5.179-11.983,13.432-11.983a13.544,13.544,0,0,1,13.239,9.064l-5.884,2.6c-1.027-2.154-3.073-5.194-7.482-5.194-3.965,0-6.207,2.408-6.207,5.447,0,8.751,20.271,7.161,20.271,21.106,0,7.415-5.435,12.994-14.258,12.994-9.146,0-13.111-6.084-14.453-10.014Z"/>
  </g>
</svg>
