<?xml version="1.0" encoding="utf-8"?>
<!-- Generator: Adobe Illustrator 21.0.2, SVG Export Plug-In . SVG Version: 6.00 Build 0)  -->
<svg version="1.1" id="Layer_1" xmlns="http://www.w3.org/2000/svg" xmlns:xlink="http://www.w3.org/1999/xlink" x="0px" y="0px"
	 viewBox="0 0 1478.7 255" style="enable-background:new 0 0 1478.7 255;" xml:space="preserve">
<style type="text/css">
	.st0{fill:none;stroke:#000000;stroke-width:11;stroke-miterlimit:10;}
	.st1{fill:#ABABAB;}
	.st2{fill:none;stroke:#000000;stroke-width:15;stroke-miterlimit:10;}
	.st3{display:none;}
	.st4{display:inline;}
	.st5{fill:none;stroke:#000000;stroke-width:9;stroke-miterlimit:10;}
	.st6{fill:none;stroke:#000000;stroke-width:9;stroke-miterlimit:10;stroke-dasharray:11.5716,11.5716;}
	.st7{fill:none;stroke:#000000;stroke-width:9;stroke-miterlimit:10;stroke-dasharray:6.3774,6.3774;}
	.st8{fill:none;stroke:#000000;stroke-width:9;stroke-miterlimit:10;stroke-dasharray:13.105,13.105;}
	.st9{fill:none;stroke:#000000;stroke-width:9;stroke-miterlimit:10;stroke-dasharray:11.3823,11.3823;}
	.st10{fill:none;stroke:#000000;stroke-width:9;stroke-miterlimit:10;stroke-dasharray:6.8286,6.8286;}
	.st11{fill:none;stroke:#000000;stroke-width:9;stroke-miterlimit:10;stroke-dasharray:11.8745,11.8745;}
	.st12{fill:none;stroke:#000000;stroke-width:9;stroke-miterlimit:10;stroke-dasharray:6.8288,6.8288;}
	.st13{fill:none;stroke:#000000;stroke-width:9;stroke-miterlimit:10;stroke-dasharray:11.8746,11.8746;}
	.st14{fill:none;stroke:#000000;stroke-width:9;stroke-miterlimit:10;stroke-dasharray:6.3776,6.3776;}
	.st15{fill:none;stroke:#000000;stroke-width:8;stroke-miterlimit:10;}
</style>
<g id="Layer_5">
	<g>
		<circle class="st0" cx="641" cy="63.1" r="29.3"/>
		<circle class="st1" cx="641" cy="63.1" r="16.9"/>
		<circle class="st0" cx="703.9" cy="63.1" r="29.3"/>
		<circle class="st1" cx="703.9" cy="63.1" r="16.9"/>
		<circle class="st0" cx="766.9" cy="63.1" r="29.3"/>
		<circle class="st1" cx="766.9" cy="63.1" r="16.9"/>
		<circle class="st0" cx="830.6" cy="63.1" r="29.3"/>
		<circle class="st1" cx="830.6" cy="63.1" r="16.9"/>
		<circle class="st0" cx="641" cy="126.1" r="29.3"/>
		<circle class="st1" cx="641" cy="126.1" r="16.9"/>
		<circle class="st0" cx="703.9" cy="126.1" r="29.3"/>
		<circle class="st1" cx="703.9" cy="126.1" r="16.9"/>
		<circle class="st0" cx="766.9" cy="126.1" r="29.3"/>
		<circle class="st1" cx="766.9" cy="126.1" r="16.9"/>
		<circle class="st0" cx="830.6" cy="126.1" r="29.3"/>
		<circle class="st1" cx="830.6" cy="126.1" r="16.9"/>
		<circle class="st0" cx="641" cy="189" r="29.3"/>
		<circle class="st1" cx="641" cy="189" r="16.9"/>
		<circle class="st0" cx="703.9" cy="189" r="29.3"/>
		<circle class="st1" cx="703.9" cy="189" r="16.9"/>
		<circle class="st0" cx="766.9" cy="189" r="29.3"/>
		<circle class="st1" cx="766.9" cy="189" r="16.9"/>
		<circle class="st0" cx="830.6" cy="189" r="29.3"/>
		<circle class="st1" cx="830.6" cy="189" r="16.9"/>
		<circle class="st1" cx="672.1" cy="63.1" r="8.1"/>
		<circle class="st1" cx="641" cy="94.7" r="8.1"/>
		<circle class="st1" cx="705.4" cy="94.7" r="8.1"/>
		<circle class="st1" cx="767.6" cy="94.7" r="8.1"/>
		<circle class="st1" cx="830.6" cy="94.7" r="8.1"/>
		<circle class="st1" cx="641" cy="157.6" r="8.1"/>
		<circle class="st1" cx="705.4" cy="157.6" r="8.1"/>
		<circle class="st1" cx="767.6" cy="157.6" r="8.1"/>
		<circle class="st1" cx="830.6" cy="157.6" r="8.1"/>
		<circle class="st1" cx="735" cy="63.1" r="8.1"/>
		<circle class="st1" cx="798.8" cy="63.1" r="8.1"/>
		<circle class="st1" cx="672.1" cy="124.6" r="8.1"/>
		<circle class="st1" cx="735" cy="124.6" r="8.1"/>
		<circle class="st1" cx="798.8" cy="124.6" r="8.1"/>
		<circle class="st1" cx="672.1" cy="187.5" r="8.1"/>
		<circle class="st1" cx="735" cy="187.5" r="8.1"/>
		<circle class="st1" cx="798.8" cy="187.5" r="8.1"/>
	</g>
</g>
<g id="atom">
	<g>
		<g>
			<circle class="st2" cx="101.7" cy="126.5" r="91.6"/>
			<circle class="st1" cx="101.7" cy="126.5" r="52.8"/>
		</g>
		<path class="st1" d="M196.3,69.7c0,12.4-10,22.4-22.4,22.4s-22.4-10-22.4-22.4s10-22.4,22.4-22.4
			C186.2,47.3,196.3,57.3,196.3,69.7z"/>
	</g>
</g>
<g id="Layer_2" class="st3">
</g>
<g id="Layer_4" class="st3">
</g>
<g id="Layer_3" class="st3">
	<g class="st4">
		<g>
			<circle class="st2" cx="-257.4" cy="529.9" r="58.2"/>
			<circle class="st1" cx="-257.4" cy="529.9" r="33.5"/>
		</g>
		<g>
			<circle class="st2" cx="-191.9" cy="416.9" r="58.2"/>
			<circle class="st1" cx="-191.9" cy="416.9" r="33.5"/>
		</g>
		<g>
			<circle class="st2" cx="-126.1" cy="529.9" r="58.2"/>
			<circle class="st1" cx="-126.1" cy="529.9" r="33.5"/>
		</g>
		<circle class="st1" cx="-228.4" cy="484.1" r="14.3"/>
		<circle class="st1" cx="-200" cy="530.9" r="14.3"/>
		<circle class="st1" cx="-184.4" cy="530.9" r="14.3"/>
		<circle class="st1" cx="-153.4" cy="483.5" r="14.3"/>
		<circle class="st1" cx="-220.3" cy="465.8" r="14.3"/>
		<circle class="st1" cx="-159.6" cy="466.8" r="14.3"/>
	</g>
</g>
<g id="template">
	<g>
		<g>
			<g>
				<polyline class="st5" points="1158.1,9.9 1158.1,3.9 1152.1,3.9 				"/>
				<line class="st6" x1="1140.5" y1="3.9" x2="1007.5" y2="3.9"/>
				<polyline class="st5" points="1001.8,3.9 995.8,3.9 995.8,9.9 				"/>
				<line class="st7" x1="995.8" y1="16.3" x2="995.8" y2="25.8"/>
				<polyline class="st5" points="995.8,29 995.8,35 1001.8,35 				"/>
				<line class="st8" x1="1014.8" y1="35" x2="1113.1" y2="35"/>
				<polyline class="st5" points="1119.6,35 1125.6,35 1125.6,41 				"/>
				<line class="st9" x1="1125.6" y1="52.4" x2="1125.6" y2="206.1"/>
				<polyline class="st5" points="1125.6,211.8 1125.6,217.8 1131.6,217.8 				"/>
				<line class="st10" x1="1138.5" y1="217.8" x2="1148.8" y2="217.8"/>
				<polyline class="st5" points="1153.1,217.8 1158.1,217.8 1158.1,212.8 				"/>
				<line class="st11" x1="1158.1" y1="199.9" x2="1158.1" y2="15.8"/>
			</g>
		</g>
		<g>
			<g>
				<polyline class="st5" points="995.8,39.3 995.8,35 989.8,35 				"/>
				<line class="st12" x1="982.9" y1="35" x2="972.6" y2="35"/>
				<polyline class="st5" points="969.2,35 963.2,35 963.2,41 				"/>
				<line class="st13" x1="963.2" y1="52.9" x2="963.2" y2="237"/>
				<polyline class="st5" points="963.2,242.9 963.2,248.9 969.2,248.9 				"/>
				<line class="st6" x1="980.8" y1="248.9" x2="1113.8" y2="248.9"/>
				<polyline class="st5" points="1119.6,248.9 1125.6,248.9 1125.6,242.9 				"/>
				<line class="st14" x1="1125.6" y1="236.5" x2="1125.6" y2="227"/>
				<polyline class="st5" points="1125.6,223.8 1125.6,217.8 1122.2,217.8 				"/>
			</g>
		</g>
	</g>
</g>
<g id="page">
	<g>
		<polygon class="st15" points="1468.8,3.9 1301,3.9 1301,28.4 1396.8,28.4 1444.4,74.5 1444.4,224.9 1468.8,224.9 		"/>
		<polyline class="st15" points="1397.5,28.4 1276.5,28.4 1276.5,249.4 1444.4,249.4 1444.4,80.8 		"/>
		<polygon class="st15" points="1399.3,34.8 1399.4,74.9 1439,75.1 		"/>
	</g>
</g>
<g id="Layer_3_1_">
	<g>
		<g>
			<circle class="st2" cx="341.4" cy="174.2" r="49.3"/>
			<circle class="st1" cx="341.4" cy="174.2" r="28.4"/>
		</g>
		<g>
			<circle class="st2" cx="396.9" cy="78.4" r="49.3"/>
			<circle class="st1" cx="396.9" cy="78.4" r="28.4"/>
		</g>
		<g>
			<circle class="st2" cx="452.7" cy="174.2" r="49.3"/>
			<circle class="st1" cx="452.7" cy="174.2" r="28.4"/>
		</g>
		<circle class="st1" cx="366" cy="135.4" r="12.1"/>
		<circle class="st1" cx="390" cy="175" r="12.1"/>
		<circle class="st1" cx="403.3" cy="175" r="12.1"/>
		<circle class="st1" cx="429.5" cy="134.9" r="12.1"/>
		<circle class="st1" cx="372.8" cy="119.9" r="12.1"/>
		<circle class="st1" cx="424.3" cy="120.7" r="12.1"/>
	</g>
</g>
<polygon class="st1" points="252.7,124.9 237.4,139.5 237.4,110.3 "/>
<polygon class="st1" points="563.7,124.9 548.4,139.5 548.4,110.3 "/>
<polygon class="st1" points="919.8,124.9 904.4,139.5 904.4,110.3 "/>
<polygon class="st1" points="1225.8,124.9 1210.4,139.5 1210.4,110.3 "/>
</svg>
