<svg xmlns="http://www.w3.org/2000/svg" width="921" height="239" viewBox="0 0 921 239">
  <metadata><?xpacket begin="﻿" id="W5M0MpCehiHzreSzNTczkc9d"?>
<x:xmpmeta xmlns:x="adobe:ns:meta/" x:xmptk="Adobe XMP Core 5.6-c138 79.159824, 2016/09/14-01:09:01        ">
   <rdf:RDF xmlns:rdf="http://www.w3.org/1999/02/22-rdf-syntax-ns#">
      <rdf:Description rdf:about=""/>
   </rdf:RDF>
</x:xmpmeta>
                                                                                                    
                                                                                                    
                                                                                                    
                                                                                                    
                                                                                                    
                                                                                                    
                                                                                                    
                                                                                                    
                                                                                                    
                                                                                                    
                                                                                                    
                                                                                                    
                                                                                                    
                                                                                                    
                                                                                                    
                                                                                                    
                                                                                                    
                                                                                                    
                                                                                                    
                                                                                                    
                           
<?xpacket end="w"?></metadata>
<defs>
    <style>
      .cls-1 {
        fill: #02a0ff;
      }

      .cls-1, .cls-2, .cls-3 {
        fill-rule: evenodd;
      }

      .cls-3 {
        fill: #666;
      }
    </style>
  </defs>
  <g id="Artboard_1" data-name="Artboard 1">
    <path id="flexbox" class="cls-1" d="M73,207V94H186V207H73ZM135,32h51V83H135V32ZM73,32h51V83H73V32ZM12,156H63v51H12V156Zm0-62H63v51H12V94Zm0-62H63V83H12V32Z"/>
    <path id="bem" class="cls-2" d="M484,214V187h93v27H484Zm-30-27H349V25h53V79h52a30,30,0,0,1,30,30v48A30,30,0,0,1,454,187Z"/>
    <path class="cls-2" d="M799.5,230A111.5,111.5,0,1,1,911,118.5,111.5,111.5,0,0,1,799.5,230ZM799,20a98,98,0,1,0,98,98A98,98,0,0,0,799,20Z"/>
    <path class="cls-3" d="M880,79a26,26,0,1,1,26-26A26,26,0,0,1,880,79Zm-80.5,99A59.5,59.5,0,1,1,859,118.5,59.5,59.5,0,0,1,799.5,178Z"/>
  </g>
</svg>
